<svg width="50" height="50" viewBox="0 0 50 50" fill="none" xmlns="http://www.w3.org/2000/svg">
<path fill-rule="evenodd" clip-rule="evenodd" d="M25 12.5781C25.5093 12.0586 26.117 11.6459 26.7878 11.3642C27.4585 11.0824 28.1787 10.9374 28.9062 10.9375H41.4062C42.5672 10.9375 43.5781 11.5688 44.1156 12.5047C44.225 12.6938 44.2656 12.9109 44.2656 13.1297V16.7141L45.3125 39.8438C45.3125 40.8798 44.901 41.8733 44.1684 42.6059C43.4358 43.3385 42.4423 43.75 41.4062 43.75H8.59375C7.55775 43.75 6.56418 43.3385 5.83161 42.6059C5.09905 41.8733 4.6875 40.8798 4.6875 39.8438L5.73438 16.7141V13.1297C5.73438 12.9109 5.775 12.6938 5.88438 12.5047C6.15831 12.0283 6.55303 11.6326 7.02871 11.3574C7.50439 11.0823 8.04422 10.9374 8.59375 10.9375H21.0938C22.625 10.9375 24.0078 11.5656 25 12.5781Z" fill="#B4ACBC"/>
<path d="M27.7063 46.875H44.5313C45.8281 46.875 46.8766 45.8156 46.8766 44.5234V42.875C46.8766 41.5828 45.8297 39.0609 44.5313 39.0609H5.46875C4.17344 39.0625 3.125 41.5843 3.125 42.8765V44.539C3.125 45.8312 4.17188 46.875 5.47031 46.875H22.2938C22.568 47.35 22.9625 47.7445 23.4376 48.0187C23.9126 48.293 24.4515 48.4373 25 48.4373C25.5485 48.4373 26.0874 48.293 26.5624 48.0187C27.0375 47.7445 27.432 47.35 27.7063 46.875Z" fill="#0074BA"/>
<path fill-rule="evenodd" clip-rule="evenodd" d="M5.47031 15.625H21.875V17.1875H28.125V15.625H44.5297C45.8266 15.625 46.875 16.6687 46.875 17.9609V42.9609C46.875 44.2531 45.8281 45.3125 44.5297 45.3125H27.7063C27.432 45.7875 27.0375 46.182 26.5624 46.4562C26.0874 46.7305 25.5485 46.8749 25 46.8749C24.4515 46.8749 23.9126 46.7305 23.4376 46.4562C22.9625 46.182 22.568 45.7875 22.2937 45.3125H5.46875C4.17344 45.3125 3.125 44.2688 3.125 42.9766V17.9609C3.125 16.6687 4.17187 15.625 5.47031 15.625ZM27.3438 42.9688C27.3438 43.5904 27.0968 44.1865 26.6573 44.626C26.2177 45.0656 25.6216 45.3125 25 45.3125C24.3784 45.3125 23.7823 45.0656 23.3427 44.626C22.9032 44.1865 22.6562 43.5904 22.6562 42.9688C22.6562 42.3472 22.9032 41.751 23.3427 41.3115C23.7823 40.8719 24.3784 40.625 25 40.625C25.6216 40.625 26.2177 40.8719 26.6573 41.3115C27.0968 41.751 27.3438 42.3472 27.3438 42.9688Z" fill="#00A6ED"/>
<path d="M21.5 12.5H12.5037C12.1951 12.5 11.8912 12.5953 11.6191 12.7774C11.3469 12.9595 11.115 13.2227 10.9437 13.5438L9 17.1875V39.8438C9 40.4654 9.19754 41.0615 9.54917 41.501C9.90081 41.9406 10.3777 42.1875 10.875 42.1875H39.625C40.1223 42.1875 40.5992 41.9406 40.9508 41.501C41.3025 41.0615 41.5 40.4654 41.5 39.8438V17.1875L39.5562 13.5438C39.385 13.2227 39.1531 12.9595 38.8809 12.7774C38.6088 12.5953 38.3049 12.5 37.9963 12.5H29V17.1875H21.5V12.5Z" fill="#B4ACBC"/>
<path d="M12.25 12.5H22.25C23.0788 12.5 23.8737 12.9116 24.4597 13.6441C25.0458 14.3767 25.375 15.3702 25.375 16.4062V42.1875L24.8163 40.7906C24.6086 40.2711 24.2892 39.8343 23.894 39.529C23.4988 39.2238 23.0433 39.0622 22.5787 39.0625H12.25C11.9185 39.0625 11.6005 38.8979 11.3661 38.6049C11.1317 38.3118 11 37.9144 11 37.5V14.0625C11 13.6481 11.1317 13.2507 11.3661 12.9576C11.6005 12.6646 11.9185 12.5 12.25 12.5ZM28.5 12.5H38.5C38.8315 12.5 39.1495 12.6646 39.3839 12.9576C39.6183 13.2507 39.75 13.6481 39.75 14.0625V37.5C39.75 37.9144 39.6183 38.3118 39.3839 38.6049C39.1495 38.8979 38.8315 39.0625 38.5 39.0625H28.17C27.7295 39.0625 27.2968 39.2081 26.9157 39.4844C26.5346 39.7607 26.2187 40.1579 26 40.6359V14.0625C26.57 13.1141 27.4775 12.5 28.5 12.5Z" fill="#F3EEF8"/>
</svg>
