<svg width="50" height="50" viewBox="0 0 50 50" fill="none" xmlns="http://www.w3.org/2000/svg">
<path d="M25 4.16669C19.2708 4.16669 14.5833 8.85419 14.5833 14.5834V18.75H18.75V14.5834C18.75 11.1459 21.5625 8.33335 25 8.33335C28.4375 8.33335 31.25 11.1459 31.25 14.5834H35.4166C35.4166 8.85419 30.7291 4.16669 25 4.16669Z" fill="#424242"/>
<path d="M37.5 45.8333H12.5C10.2083 45.8333 8.33331 43.9583 8.33331 41.6667V22.9167C8.33331 20.625 10.2083 18.75 12.5 18.75H37.5C39.7916 18.75 41.6666 20.625 41.6666 22.9167V41.6667C41.6666 43.9583 39.7916 45.8333 37.5 45.8333Z" fill="#FB8C00"/>
<path d="M25 35.4167C26.7259 35.4167 28.125 34.0176 28.125 32.2917C28.125 30.5658 26.7259 29.1667 25 29.1667C23.2741 29.1667 21.875 30.5658 21.875 32.2917C21.875 34.0176 23.2741 35.4167 25 35.4167Z" fill="#C76E00"/>
</svg>
